<svg width="18" height="17" viewBox="0 0 18 17" fill="none" xmlns="http://www.w3.org/2000/svg">
<path fill-rule="evenodd" clip-rule="evenodd" d="M5.71286 0.712901C6.14263 0.28313 6.72553 0.041687 7.33332 0.041687H10.6666C11.2744 0.041687 11.8573 0.28313 12.2871 0.712901C12.7169 1.14267 12.9583 1.72557 12.9583 2.33335V3.37502H14.8333C15.4411 3.37502 16.024 3.61646 16.4538 4.04623C16.8835 4.476 17.125 5.0589 17.125 5.66669V10.0313C17.1252 10.0409 17.1252 10.0504 17.125 10.06V14C17.125 14.6078 16.8835 15.1907 16.4538 15.6205C16.024 16.0502 15.4411 16.2917 14.8333 16.2917H3.16665C2.55886 16.2917 1.97597 16.0502 1.5462 15.6205C1.11643 15.1907 0.874982 14.6078 0.874982 14V10.06C0.874762 10.0504 0.874761 10.0409 0.874982 10.0313V5.66669C0.874982 5.0589 1.11642 4.476 1.5462 4.04623C1.97597 3.61646 2.55886 3.37502 3.16665 3.37502H5.04165V2.33335C5.04165 1.72557 5.28309 1.14267 5.71286 0.712901ZM6.29165 3.37502H11.7083V2.33335C11.7083 2.05709 11.5986 1.79213 11.4032 1.59678C11.2079 1.40143 10.9429 1.29169 10.6666 1.29169H7.33332C7.05705 1.29169 6.7921 1.40143 6.59675 1.59678C6.4014 1.79213 6.29165 2.05709 6.29165 2.33335V3.37502ZM3.16665 4.62502C2.89038 4.62502 2.62543 4.73477 2.43008 4.93012C2.23473 5.12547 2.12498 5.39042 2.12498 5.66669V9.61962C4.26136 10.4305 6.57769 10.875 8.99998 10.875C11.3498 10.8779 13.6801 10.452 15.875 9.61949V5.66669C15.875 5.39042 15.7652 5.12547 15.5699 4.93012C15.3745 4.73477 15.1096 4.62502 14.8333 4.62502H3.16665ZM8.99998 12.125C11.344 12.1278 13.669 11.7299 15.875 10.9506L8.99998 12.125ZM15.875 10.9506V14C15.875 14.2763 15.7652 14.5412 15.5699 14.7366C15.3745 14.9319 15.1096 15.0417 14.8333 15.0417H3.16665C2.89038 15.0417 2.62543 14.9319 2.43008 14.7366C2.23473 14.5412 2.12498 14.2763 2.12498 14V10.9508C4.27613 11.7111 6.59009 12.125 8.99998 12.125M8.37498 9.00002C8.37498 8.65484 8.6548 8.37502 8.99998 8.37502H9.00832C9.35349 8.37502 9.63332 8.65484 9.63332 9.00002C9.63332 9.3452 9.35349 9.62502 9.00832 9.62502H8.99998C8.6548 9.62502 8.37498 9.3452 8.37498 9.00002Z" fill="#A0AEC0"/>
</svg>
